<mxfile host="app.diagrams.net" modified="2021-08-05T09:35:35.999Z" agent="5.0 (Macintosh; Intel Mac OS X 10_15_7) AppleWebKit/537.36 (KHTML, like Gecko) Chrome/92.0.4515.131 Safari/537.36" etag="gXV9QldssSoCTESU-P-c" version="14.9.4" type="github">
  <diagram id="R-m6Tb4T8tBQgtUXP2a2" name="Page-1">
    <mxGraphModel dx="872" dy="763" grid="1" gridSize="10" guides="1" tooltips="1" connect="1" arrows="1" fold="1" page="1" pageScale="1" pageWidth="827" pageHeight="1169" math="0" shadow="0">
      <root>
        <mxCell id="0" />
        <mxCell id="1" parent="0" visible="0" />
        <mxCell id="tKbJSPr6s4l4xf4vFSdI-1" value="1" parent="0" />
        <mxCell id="tKbJSPr6s4l4xf4vFSdI-3" value="" style="swimlane;startSize=0;" vertex="1" parent="tKbJSPr6s4l4xf4vFSdI-1">
          <mxGeometry x="30" y="110" width="200" height="130" as="geometry">
            <mxRectangle width="50" height="40" as="alternateBounds" />
          </mxGeometry>
        </mxCell>
        <mxCell id="tKbJSPr6s4l4xf4vFSdI-7" value="运动控制电脑" style="text;html=1;strokeColor=none;fillColor=none;align=center;verticalAlign=middle;whiteSpace=wrap;rounded=0;fontSize=14;" vertex="1" parent="tKbJSPr6s4l4xf4vFSdI-3">
          <mxGeometry x="50" y="55" width="100" height="20" as="geometry" />
        </mxCell>
        <mxCell id="tKbJSPr6s4l4xf4vFSdI-9" value="输入输出模块" style="rounded=0;whiteSpace=wrap;html=1;fontSize=14;" vertex="1" parent="tKbJSPr6s4l4xf4vFSdI-1">
          <mxGeometry x="290" y="180" width="120" height="60" as="geometry" />
        </mxCell>
        <mxCell id="tKbJSPr6s4l4xf4vFSdI-10" value="输入输出模块" style="rounded=0;whiteSpace=wrap;html=1;fontSize=14;" vertex="1" parent="tKbJSPr6s4l4xf4vFSdI-1">
          <mxGeometry x="465" y="180" width="120" height="60" as="geometry" />
        </mxCell>
        <mxCell id="tKbJSPr6s4l4xf4vFSdI-18" value="" style="edgeStyle=segmentEdgeStyle;endArrow=classic;html=1;fontSize=14;exitX=1;exitY=0.146;exitDx=0;exitDy=0;exitPerimeter=0;startArrow=classic;startFill=1;" edge="1" parent="tKbJSPr6s4l4xf4vFSdI-1" source="tKbJSPr6s4l4xf4vFSdI-3" target="tKbJSPr6s4l4xf4vFSdI-9">
          <mxGeometry width="50" height="50" relative="1" as="geometry">
            <mxPoint x="370" y="400" as="sourcePoint" />
            <mxPoint x="310" y="175" as="targetPoint" />
            <Array as="points">
              <mxPoint x="310" y="129" />
            </Array>
          </mxGeometry>
        </mxCell>
        <mxCell id="tKbJSPr6s4l4xf4vFSdI-25" value="实时总线" style="edgeLabel;html=1;align=center;verticalAlign=middle;resizable=0;points=[];fontSize=14;" vertex="1" connectable="0" parent="tKbJSPr6s4l4xf4vFSdI-18">
          <mxGeometry x="-0.3501" relative="1" as="geometry">
            <mxPoint as="offset" />
          </mxGeometry>
        </mxCell>
        <mxCell id="tKbJSPr6s4l4xf4vFSdI-19" value="" style="edgeStyle=segmentEdgeStyle;endArrow=classic;html=1;fontSize=14;exitX=0.25;exitY=0;exitDx=0;exitDy=0;startArrow=classic;startFill=1;" edge="1" parent="tKbJSPr6s4l4xf4vFSdI-1" source="tKbJSPr6s4l4xf4vFSdI-9">
          <mxGeometry width="50" height="50" relative="1" as="geometry">
            <mxPoint x="350" y="138.98000000000002" as="sourcePoint" />
            <mxPoint x="490" y="179" as="targetPoint" />
            <Array as="points">
              <mxPoint x="320" y="130" />
              <mxPoint x="490" y="130" />
            </Array>
          </mxGeometry>
        </mxCell>
        <mxCell id="tKbJSPr6s4l4xf4vFSdI-24" value="实时总线" style="edgeLabel;html=1;align=center;verticalAlign=middle;resizable=0;points=[];fontSize=14;" vertex="1" connectable="0" parent="tKbJSPr6s4l4xf4vFSdI-19">
          <mxGeometry x="0.0494" y="-1" relative="1" as="geometry">
            <mxPoint x="-11" as="offset" />
          </mxGeometry>
        </mxCell>
        <mxCell id="tKbJSPr6s4l4xf4vFSdI-21" value="" style="shape=waypoint;sketch=0;fillStyle=solid;size=6;pointerEvents=1;points=[];fillColor=none;resizable=0;rotatable=0;perimeter=centerPerimeter;snapToPoint=1;fontSize=14;" vertex="1" parent="tKbJSPr6s4l4xf4vFSdI-1">
          <mxGeometry x="620" y="190" width="40" height="40" as="geometry" />
        </mxCell>
        <mxCell id="tKbJSPr6s4l4xf4vFSdI-22" value="" style="shape=waypoint;sketch=0;fillStyle=solid;size=6;pointerEvents=1;points=[];fillColor=none;resizable=0;rotatable=0;perimeter=centerPerimeter;snapToPoint=1;fontSize=14;" vertex="1" parent="tKbJSPr6s4l4xf4vFSdI-1">
          <mxGeometry x="640" y="190" width="40" height="40" as="geometry" />
        </mxCell>
        <mxCell id="tKbJSPr6s4l4xf4vFSdI-23" value="" style="shape=waypoint;sketch=0;fillStyle=solid;size=6;pointerEvents=1;points=[];fillColor=none;resizable=0;rotatable=0;perimeter=centerPerimeter;snapToPoint=1;fontSize=14;" vertex="1" parent="tKbJSPr6s4l4xf4vFSdI-1">
          <mxGeometry x="660" y="190" width="40" height="40" as="geometry" />
        </mxCell>
      </root>
    </mxGraphModel>
  </diagram>
</mxfile>
